<?xml version="1.0" standalone="no"?>
<!DOCTYPE svg PUBLIC "-//W3C//DTD SVG 20010904//EN"
 "http://www.w3.org/TR/2001/REC-SVG-20010904/DTD/svg10.dtd">
<svg version="1.0" xmlns="http://www.w3.org/2000/svg"
 width="216.000000pt" height="216.000000pt" viewBox="0 0 216.000000 216.000000"
 preserveAspectRatio="xMidYMid meet">
<metadata>
Created by potrace 1.14, written by Peter Selinger 2001-2017
</metadata>
<g transform="translate(0.000000,216.000000) scale(0.100000,-0.100000)"
fill="#000000" stroke="none">
<path d="M2044 1892 c-22 -20 -72 -64 -110 -97 -77 -68 -134 -118 -249 -221
-44 -39 -98 -86 -120 -105 -21 -19 -46 -41 -55 -49 -24 -22 -84 -76 -175 -155
-74 -65 -127 -112 -180 -160 -13 -11 -86 -76 -164 -144 l-141 -123 0 -284 c0
-156 3 -284 6 -284 3 0 11 6 18 13 7 6 51 46 97 87 45 41 94 86 108 99 14 13
62 55 105 95 44 39 105 94 136 123 31 29 65 60 76 70 12 10 60 53 107 97 48
43 95 86 106 95 17 15 160 145 221 201 32 29 169 153 223 201 l37 34 -2 272
-3 272 -41 -37z"/>
<path d="M1234 1907 c-9 -10 -74 -69 -174 -157 -42 -37 -137 -121 -158 -138
-12 -11 -54 -48 -92 -82 -38 -34 -78 -70 -88 -79 -11 -9 -48 -42 -83 -73 -35
-31 -73 -65 -85 -75 -45 -38 -169 -149 -184 -163 -9 -8 -34 -30 -55 -49 -22
-19 -74 -64 -115 -101 -41 -37 -96 -85 -122 -106 -41 -34 -47 -44 -48 -79 -4
-133 -4 -535 0 -535 5 0 45 34 115 98 22 21 87 80 145 132 58 52 107 97 110
100 3 3 52 48 110 100 58 52 110 100 116 105 42 39 187 170 202 184 20 17 165
148 212 191 15 14 67 61 115 105 49 44 93 85 99 91 15 14 15 536 1 540 -5 2
-15 -2 -21 -9z"/>
</g>
</svg>
