<svg width="35" height="37.1" viewBox="0 0 200 212" fill="none" xmlns="http://www.w3.org/2000/svg">
<path d="M155.14 131.78C155.14 131.45 155.14 131.12 155.14 130.78C157.42 129.83 157.76 128.25 156.67 126.18C159.24 113.72 161.78 101.25 164.4 88.8C165.93 81.54 167.64 74.33 169.19 67.08C174.68 41.51 176.06 39.91 176.24 34.26C176.5 26.28 174.9 14.58 165.57 0C168.87 3.16 197.77 30.9 198.54 32.35C198.8 32.85 198.92 33.37 198.92 33.37C199.11 34.23 198.97 34.94 198.92 35.22C193.28 61.84 187.66 88.47 182.01 115.09C179.91 124.96 178.26 134.96 175.49 144.64C167.23 173.4 148.43 193.1 121.3 205.09C108.04 210.95 94.0695 212.94 79.6595 210.79C73.1895 209.82 67.1795 207.91 61.6495 205.06C56.4995 202.4 52.9595 199.54 47.0895 194.24C41.0795 188.81 33.1195 181.29 24.0195 171.65C28.8095 176.89 38.3295 185.7 52.8395 190.01C63.2995 193.12 72.1495 192.68 76.9495 192.35C87.8395 191.6 98.2495 188.79 107.99 183.63C113.52 180.7 118.96 177.65 123.78 173.66C128.2 170.01 132.44 166.15 136.76 162.38C137.43 162.35 137.78 162.02 137.78 161.35C139.25 160.89 140.02 159.62 140.95 158.58C145.66 153.3 149.31 147.34 152.06 140.87C153.3 137.94 155.27 135.2 155.15 131.79L155.14 131.78Z" fill="#18813E"/>
<path d="M18.0395 163.87C18.0395 163.87 19.1995 165.1 21.2495 166.84C29.2995 173.69 38.6695 175.41 44.2095 176.46C49.7195 177.5 55.1995 177.44 60.6995 177.31C70.2195 177.08 79.2295 174.54 87.9495 170.81C94.7495 167.9 101.22 164.41 107.14 160C112.73 155.84 117.97 151.19 122.46 145.89C126.7 140.89 130.71 135.64 133.84 129.8C138.95 120.28 142.56 110.31 144.06 99.55C144.78 94.4 146.42 89.38 147.5 84.27C150.28 71.15 152.97 58.02 155.72 44.89C157.4 36.88 158.77 28.79 160.95 20.91C162.86 14 163.52 6.82003 165.85 0.0300293C169.04 3.05003 172.25 6.15003 175.49 9.32003C178.82 12.58 182.07 15.83 185.25 19.05C184 23.72 182.3 30.2 180.39 38.02C178.97 43.84 178.03 47.93 177.76 49.14C177.3 51.2 175.19 60.04 173.34 70.84C172.34 76.67 172.56 76.37 171.19 84.57C170.39 89.35 169.7 93.73 168.5 99.54C167.7 103.44 166 111.7 163.61 120.47C161.84 126.98 161.28 127.88 160.82 129.94C160.71 130.42 160.23 132.27 159.29 134.53C158.68 136.14 158.04 137.64 157.24 139.34C152.37 149.7 146.69 158.16 146.69 158.16C144.55 161.34 143.48 162.93 141.89 164.86C137.46 170.23 133.29 173.36 127.91 177.41C127.14 177.99 121.98 181.87 115.74 185.41C114.1 186.34 112.85 186.99 112.12 187.38C102.38 192.54 91.9695 195.35 81.0795 196.1C75.7295 196.47 67.2695 196.88 56.9695 193.76C56.9195 193.75 56.7695 193.7 56.5795 193.64C51.3595 192.02 42.1895 188.37 32.0195 179.62C21.5895 170.65 14.1495 159.77 14.0195 159.62C14.0195 159.62 14.8495 160.32 18.0495 163.84L18.0395 163.87Z" fill="#19A24A"/>
<path d="M18.0099 163.65C18.4499 162.97 22.9499 164.87 27.8399 167.99C32.7299 171.11 36.3299 174.2 35.8899 174.88C35.4499 175.56 31.1299 173.58 26.2499 170.46C21.3599 167.34 17.5799 164.33 18.0099 163.64V163.65Z" fill="#19A24A"/>
<path d="M0.01 137.65L45.38 116.39C45.38 116.39 47.5 119.11 49.5 121.34C55.55 128.09 59.93 129.79 62.52 130.44C70.53 132.36 77.13 129.11 79.9 127.74C81.65 126.88 86.08 124.46 89.99 119.62C93.14 115.73 95.27 111.05 96.4 105.64C102.27 77.61 108.2 49.6 114.12 21.58C115.47 15.18 116.88 8.79 118.15 2.37C118.49 0.659999 119.14 -5.21577e-07 120.99 0.00999948C135.4 0.0899995 149.8 0.0399995 164.21 0.0599995C165.02 0.0599995 165.95 -0.210001 166.55 0.669999C165.28 5.47 163.38 12.86 161.32 21.98C159.97 27.96 158.78 33.84 156.41 45.59C154.03 57.39 152.62 64.64 150.27 75.62C149.68 78.39 149.01 81.4 148.18 85.02C146.28 93.27 145.01 98.22 144.64 99.64C140.63 115.17 138.54 123.09 134.5 130.61C130.3 138.42 125.66 143.71 123.1 146.72C118.6 152.02 113.36 156.68 107.76 160.85C101.83 165.26 95.35 168.75 88.54 171.67C79.81 175.41 70.79 177.95 61.26 178.18C56.93 178.28 51.59 178.7 44.75 177.33C33.27 175.02 25.57 169.68 21.82 167.02C10.55 158.57 5.7 146.64 0 137.65" fill="#21C35D"/>
</svg>
